<?xml version="1.0" encoding="utf-8"?>
<!-- Generator: Adobe Illustrator 23.1.1, SVG Export Plug-In . SVG Version: 6.00 Build 0)  -->
<svg version="1.1" id="Layer_1" xmlns="http://www.w3.org/2000/svg" xmlns:xlink="http://www.w3.org/1999/xlink" x="0px" y="0px"
	 viewBox="0 0 913.2 900" style="enable-background:new 0 0 913.2 900;" xml:space="preserve">
<style type="text/css">
	.st0{fill:none;stroke:#000000;}
	.st1{font-family:'InputMono-Medium';}
	.st2{font-size:10px;}
	.st3{font-family:'FontAwesome5Free-Solid';}
	.st4{opacity:0.75;fill:none;stroke:#DC0300;stroke-width:12;enable-background:new    ;}
	.st5{opacity:0.75;fill:none;stroke:#9B0502;stroke-width:12;enable-background:new    ;}
	.st6{opacity:0.75;fill:none;stroke:#004225;stroke-width:12;enable-background:new    ;}
	.st7{opacity:0.75;fill:none;stroke:#FF682A;stroke-width:12;enable-background:new    ;}
	.st8{opacity:0.75;fill:none;stroke:#8B4513;stroke-width:12;enable-background:new    ;}
	.st9{opacity:0.75;fill:none;stroke:#2ED2BE;stroke-width:12;enable-background:new    ;}
	.st10{opacity:0.75;fill:none;stroke:#555555;stroke-width:12;enable-background:new    ;}
	.st11{opacity:0.75;fill:none;stroke:#F4D258;stroke-width:12;enable-background:new    ;}
	.st12{opacity:0.75;fill:none;stroke:#FB8703;stroke-width:12;enable-background:new    ;}
	.st13{opacity:0.75;fill:none;stroke:#F08080;stroke-width:12;enable-background:new    ;}
	.st14{opacity:0.75;fill:none;stroke:#800080;stroke-width:12;enable-background:new    ;}
	.st15{opacity:0.75;fill:none;stroke:#2086C0;stroke-width:12;enable-background:new    ;}
	.st16{opacity:0.75;fill:none;stroke:#FDF503;stroke-width:12;enable-background:new    ;}
	.st17{opacity:0.75;fill:none;stroke:#00A204;stroke-width:12;enable-background:new    ;}
	.st18{opacity:0.75;fill:none;stroke:#2041FF;stroke-width:12;enable-background:new    ;}
	.st19{opacity:0.75;fill:none;stroke:#80F080;stroke-width:12;enable-background:new    ;}
	.st20{fill:#9B0502;}
	.st21{font-size:16px;}
	.st22{fill:none;stroke:#000000;stroke-width:0.5;}
	.st23{fill:#DC0300;}
	.st24{fill:#2ED2BE;}
	.st25{fill:#FF682A;}
	.st26{fill:#004225;}
	.st27{fill:#8B4513;}
	.st28{fill:#555555;}
	.st29{fill:#F4D258;}
	.st30{fill:#F08080;}
	.st31{fill:#800080;}
	.st32{fill:#FB8703;}
	.st33{fill:#2086C0;}
	.st34{fill:#00A204;}
	.st35{fill:#FDF503;}
	.st36{fill:#80F080;}
	.st37{fill:#2041FF;}
</style>
<g>
	<g transform="translate(0.5,0)">
		<line class="st0" x1="110" y1="15" x2="110" y2="840"/>
		<text transform="matrix(1 0 0 1 98.877 850.1)" class="st1 st2">1950</text>
	</g>
	<g transform="translate(53.585714285714275,0)">
		<line class="st0" x1="110" y1="15" x2="110" y2="840"/>
		<text transform="matrix(1 0 0 1 98.877 850.1)" class="st1 st2">1955</text>
	</g>
	<g transform="translate(106.67142857142855,0)">
		<line class="st0" x1="110" y1="15" x2="110" y2="840"/>
		<text transform="matrix(1 0 0 1 98.8769 850.1)" class="st1 st2">1960</text>
	</g>
	<g transform="translate(159.75714285714284,0)">
		<line class="st0" x1="110" y1="15" x2="110" y2="840"/>
		<text transform="matrix(1 0 0 1 98.877 850.1)" class="st1 st2">1965</text>
	</g>
	<g transform="translate(212.8428571428571,0)">
		<line class="st0" x1="110" y1="15" x2="110" y2="840"/>
		<text transform="matrix(1 0 0 1 98.8769 850.1)" class="st1 st2">1970</text>
	</g>
	<g transform="translate(265.9285714285714,0)">
		<line class="st0" x1="110" y1="15" x2="110" y2="840"/>
		<text transform="matrix(1 0 0 1 98.877 850.1)" class="st1 st2">1975</text>
	</g>
	<g transform="translate(319.0142857142857,0)">
		<line class="st0" x1="110" y1="15" x2="110" y2="840"/>
		<text transform="matrix(1 0 0 1 98.877 850.1)" class="st1 st2">1980</text>
	</g>
	<g transform="translate(372.09999999999997,0)">
		<line class="st0" x1="110" y1="15" x2="110" y2="840"/>
		<text transform="matrix(1 0 0 1 98.877 850.1)" class="st1 st2">1985</text>
	</g>
	<g transform="translate(425.1857142857142,0)">
		<line class="st0" x1="110" y1="15" x2="110" y2="840"/>
		<text transform="matrix(1 0 0 1 98.8769 850.1)" class="st1 st2">1990</text>
	</g>
	<g transform="translate(478.27142857142854,0)">
		<line class="st0" x1="110" y1="15" x2="110" y2="840"/>
		<text transform="matrix(1 0 0 1 98.877 850.1)" class="st1 st2">1995</text>
	</g>
	<g transform="translate(531.3571428571428,0)">
		<line class="st0" x1="110" y1="15" x2="110" y2="840"/>
		<text transform="matrix(1 0 0 1 98.877 850.1)" class="st1 st2">2000</text>
	</g>
	<g transform="translate(584.4428571428571,0)">
		<line class="st0" x1="110" y1="15" x2="110" y2="840"/>
		<text transform="matrix(1 0 0 1 98.877 850.1)" class="st1 st2">2005</text>
	</g>
	<g transform="translate(637.5285714285714,0)">
		<line class="st0" x1="110" y1="15" x2="110" y2="840"/>
		<text transform="matrix(1 0 0 1 98.877 850.1)" class="st1 st2">2010</text>
	</g>
	<g transform="translate(690.6142857142856,0)">
		<line class="st0" x1="110" y1="15" x2="110" y2="840"/>
		<text transform="matrix(1 0 0 1 98.877 850.1)" class="st1 st2">2015</text>
	</g>
	<g transform="translate(743.6999999999999,0)">
		<line class="st0" x1="110" y1="15" x2="110" y2="840"/>
		<text transform="matrix(1 0 0 1 98.877 850.1)" class="st1 st2">2020</text>
	</g>
</g>
<g transform="translate(-10, 0)">
	<g transform="translate(0,49.029411764705856)">
		<text transform="matrix(1 0 0 1 71.5566 18.2)" class="st1 st2">Ferrari</text>
	</g>
	<g transform="translate(0,97.55882352941174)">
		<text transform="matrix(1 0 0 1 38.7539 18.2)" class="st1 st2">Alfa Romeo</text>
	</g>
	<g transform="translate(0,146.08823529411762)">
		<text transform="matrix(1 0 0 1 68.2021 18.2)" class="st1 st2">Cooper</text>
	</g>
	<g transform="translate(0,194.6176470588235)">
		<text transform="matrix(1 0 0 1 62.6553 18.2)" class="st1 st2">Maserati</text>
	</g>
	<g transform="translate(0,243.1470588235294)">
		<text transform="matrix(1 0 0 1 78.7783 18.2)" class="st1 st2">BRM</text>
	</g>
	<g transform="translate(0,291.67647058823525)">
		<text transform="matrix(1 0 0 1 57.0938 18.2)" class="st1 st2">Mercedes</text>
	</g>
	<g transform="translate(0,340.20588235294116)">
		<text transform="matrix(1 0 0 1 76.5371 18.2)" class="st1 st2">Lotus</text>
	</g>
	<g transform="translate(0,388.7352941176471)">
		<text transform="matrix(1 0 0 1 60.4238 18.2)" class="st1 st2">Brabham</text>
	</g>
	<g transform="translate(0,437.2647058823529)">
		<text transform="matrix(1 0 0 1 62.0938 18.2)" class="st1 st2">McLaren</text>
	</g>
	<g transform="translate(0,485.7941176470588)">
		<text transform="matrix(1 0 0 1 75.4385 18.2)" class="st1 st2">Matra</text>
	</g>
	<g transform="translate(0,534.3235294117646)">
		<text transform="matrix(1 0 0 1 73.7734 18.2)" class="st3 st2">Tyrrell</text>
	</g>
	<g transform="translate(0,582.8529411764706)">
		<text transform="matrix(1 0 0 1 63.7832 18.2)" class="st3 st2">Williams</text>
	</g>
	<g transform="translate(0,631.3823529411765)">
		<text transform="matrix(1 0 0 1 66.5322 18.2)" class="st3 st2">Renault</text>
	</g>
	<g transform="translate(0,679.9117647058823)">
		<text transform="matrix(1 0 0 1 60.9658 18.2)" class="st3 st2">Benetton</text>
	</g>
	<g transform="translate(0,728.4411764705883)">
		<text transform="matrix(1 0 0 1 63.2021 18.2)" class="st3 st2">Red Bull</text>
	</g>
	<g transform="translate(0,776.9705882352941)">
		<text transform="matrix(1 0 0 1 55.4287 18.2)" class="st3 st2">Brawn GP</text>
	</g>
</g>
<line class="st4" x1="110" y1="63.5" x2="853.2" y2="63.5"/>
<line class="st5" x1="110" y1="112.1" x2="131.2" y2="112.1"/>
<line class="st6" x1="110" y1="160.6" x2="120.6" y2="160.6"/>
<line class="st7" x1="110" y1="209.1" x2="226.8" y2="209.1"/>
<line class="st8" x1="120.6" y1="257.6" x2="131.2" y2="257.6"/>
<line class="st6" x1="131.2" y1="160.6" x2="322.3" y2="160.6"/>
<line class="st9" x1="152.5" y1="306.2" x2="173.7" y2="306.2"/>
<line class="st8" x1="184.3" y1="257.6" x2="407.3" y2="257.6"/>
<line class="st10" x1="194.9" y1="354.7" x2="587.8" y2="354.7"/>
<line class="st11" x1="237.4" y1="403.2" x2="566.5" y2="403.2"/>
<line class="st12" x1="279.9" y1="451.8" x2="853.2" y2="451.8"/>
<line class="st13" x1="290.5" y1="500.3" x2="354.2" y2="500.3"/>
<line class="st14" x1="322.3" y1="548.8" x2="630.2" y2="548.8"/>
<line class="st15" x1="375.4" y1="597.4" x2="853.2" y2="597.4"/>
<line class="st16" x1="396.7" y1="645.9" x2="492.2" y2="645.9"/>
<line class="st5" x1="417.9" y1="112.1" x2="492.2" y2="112.1"/>
<line class="st17" x1="492.2" y1="694.4" x2="662.1" y2="694.4"/>
<line class="st16" x1="662.1" y1="645.9" x2="853.2" y2="645.9"/>
<line class="st18" x1="693.9" y1="742.9" x2="853.2" y2="742.9"/>
<line class="st19" x1="736.4" y1="791.5" x2="747" y2="791.5"/>
<line class="st10" x1="747" y1="354.7" x2="810.7" y2="354.7"/>
<line class="st9" x1="747" y1="306.2" x2="853.2" y2="306.2"/>
<line class="st5" x1="832" y1="112.1" x2="853.2" y2="112.1"/>
<text transform="matrix(1 0 0 1 104 112.0588)" class="st20 st3 st21"></text>
<text transform="matrix(1 0 0 1 104 112.0588)" class="st22 st3 st21"></text>
<text transform="matrix(1 0 0 1 114.6171 112.0588)" class="st20 st3 st21"></text>
<text transform="matrix(1 0 0 1 114.6171 112.0588)" class="st22 st3 st21"></text>
<text transform="matrix(1 0 0 1 125.2343 63.5294)" class="st23 st3 st21"></text>
<text transform="matrix(1 0 0 1 125.2343 63.5294)" class="st22 st3 st21"></text>
<text transform="matrix(1 0 0 1 135.8514 63.5294)" class="st23 st3 st21"></text>
<text transform="matrix(1 0 0 1 135.8514 63.5294)" class="st22 st3 st21"></text>
<text transform="matrix(1 0 0 1 146.4686 306.1765)" class="st24 st3 st21"></text>
<text transform="matrix(1 0 0 1 146.4686 306.1765)" class="st22 st3 st21"></text>
<text transform="matrix(1 0 0 1 157.0857 306.1765)" class="st24 st3 st21"></text>
<text transform="matrix(1 0 0 1 157.0857 306.1765)" class="st22 st3 st21"></text>
<text transform="matrix(1 0 0 1 167.7029 63.5294)" class="st23 st3 st21"></text>
<text transform="matrix(1 0 0 1 167.7029 63.5294)" class="st22 st3 st21"></text>
<text transform="matrix(1 0 0 1 178.32 209.1176)" class="st25 st3 st21"></text>
<text transform="matrix(1 0 0 1 178.32 209.1176)" class="st22 st3 st21"></text>
<text transform="matrix(1 0 0 1 188.9371 63.5294)" class="st23 st3 st21"></text>
<text transform="matrix(1 0 0 1 188.9371 63.5294)" class="st22 st3 st21"></text>
<text transform="matrix(1 0 0 1 199.5543 160.5883)" class="st26 st3 st21"></text>
<text transform="matrix(1 0 0 1 199.5543 160.5883)" class="st22 st3 st21"></text>
<text transform="matrix(1 0 0 1 210.1714 160.5883)" class="st26 st3 st21"></text>
<text transform="matrix(1 0 0 1 210.1714 160.5883)" class="st22 st3 st21"></text>
<text transform="matrix(1 0 0 1 220.7886 63.5294)" class="st23 st3 st21"></text>
<text transform="matrix(1 0 0 1 220.7886 63.5294)" class="st22 st3 st21"></text>
<text transform="matrix(1 0 0 1 231.4057 257.6471)" class="st27 st3 st21"></text>
<text transform="matrix(1 0 0 1 231.4057 257.6471)" class="st22 st3 st21"></text>
<text transform="matrix(1 0 0 1 242.0229 354.7059)" class="st28 st3 st21"></text>
<text transform="matrix(1 0 0 1 242.0229 354.7059)" class="st22 st3 st21"></text>
<text transform="matrix(1 0 0 1 252.64 63.5294)" class="st23 st3 st21"></text>
<text transform="matrix(1 0 0 1 252.64 63.5294)" class="st22 st3 st21"></text>
<text transform="matrix(1 0 0 1 263.2571 354.7059)" class="st28 st3 st21"></text>
<text transform="matrix(1 0 0 1 263.2571 354.7059)" class="st22 st3 st21"></text>
<text transform="matrix(1 0 0 1 273.8743 403.2353)" class="st29 st3 st21"></text>
<text transform="matrix(1 0 0 1 273.8743 403.2353)" class="st22 st3 st21"></text>
<text transform="matrix(1 0 0 1 284.4914 403.2353)" class="st29 st3 st21"></text>
<text transform="matrix(1 0 0 1 284.4914 403.2353)" class="st22 st3 st21"></text>
<text transform="matrix(1 0 0 1 295.1086 354.7059)" class="st28 st3 st21"></text>
<text transform="matrix(1 0 0 1 295.1086 354.7059)" class="st22 st3 st21"></text>
<text transform="matrix(1 0 0 1 305.7257 500.2941)" class="st30 st3 st21"></text>
<text transform="matrix(1 0 0 1 305.7257 500.2941)" class="st22 st3 st21"></text>
<text transform="matrix(1 0 0 1 316.3428 354.7059)" class="st28 st3 st21"></text>
<text transform="matrix(1 0 0 1 316.3428 354.7059)" class="st22 st3 st21"></text>
<text transform="matrix(1 0 0 1 326.96 548.8235)" class="st31 st3 st21"></text>
<text transform="matrix(1 0 0 1 326.96 548.8235)" class="st22 st3 st21"></text>
<text transform="matrix(1 0 0 1 337.5771 354.7059)" class="st28 st3 st21"></text>
<text transform="matrix(1 0 0 1 337.5771 354.7059)" class="st22 st3 st21"></text>
<text transform="matrix(1 0 0 1 348.1943 548.8235)" class="st31 st3 st21"></text>
<text transform="matrix(1 0 0 1 348.1943 548.8235)" class="st22 st3 st21"></text>
<text transform="matrix(1 0 0 1 358.8114 451.7647)" class="st32 st3 st21"></text>
<text transform="matrix(1 0 0 1 358.8114 451.7647)" class="st22 st3 st21"></text>
<text transform="matrix(1 0 0 1 369.4286 63.5294)" class="st23 st3 st21"></text>
<text transform="matrix(1 0 0 1 369.4286 63.5294)" class="st22 st3 st21"></text>
<text transform="matrix(1 0 0 1 380.0457 451.7647)" class="st32 st3 st21"></text>
<text transform="matrix(1 0 0 1 380.0457 451.7647)" class="st22 st3 st21"></text>
<text transform="matrix(1 0 0 1 390.6629 63.5294)" class="st23 st3 st21"></text>
<text transform="matrix(1 0 0 1 390.6629 63.5294)" class="st22 st3 st21"></text>
<text transform="matrix(1 0 0 1 401.28 354.7059)" class="st28 st3 st21"></text>
<text transform="matrix(1 0 0 1 401.28 354.7059)" class="st22 st3 st21"></text>
<text transform="matrix(1 0 0 1 411.8972 63.5294)" class="st23 st3 st21"></text>
<text transform="matrix(1 0 0 1 411.8972 63.5294)" class="st22 st3 st21"></text>
<text transform="matrix(1 0 0 1 422.5143 597.353)" class="st33 st3 st21"></text>
<text transform="matrix(1 0 0 1 422.5143 597.353)" class="st22 st3 st21"></text>
<text transform="matrix(1 0 0 1 433.1314 403.2353)" class="st29 st3 st21"></text>
<text transform="matrix(1 0 0 1 433.1314 403.2353)" class="st22 st3 st21"></text>
<text transform="matrix(1 0 0 1 443.7486 597.353)" class="st33 st3 st21"></text>
<text transform="matrix(1 0 0 1 443.7486 597.353)" class="st22 st3 st21"></text>
<text transform="matrix(1 0 0 1 454.3657 403.2353)" class="st29 st3 st21"></text>
<text transform="matrix(1 0 0 1 454.3657 403.2353)" class="st22 st3 st21"></text>
<text transform="matrix(1 0 0 1 464.9828 451.7647)" class="st32 st3 st21"></text>
<text transform="matrix(1 0 0 1 464.9828 451.7647)" class="st22 st3 st21"></text>
<text transform="matrix(1 0 0 1 475.6 451.7647)" class="st32 st3 st21"></text>
<text transform="matrix(1 0 0 1 475.6 451.7647)" class="st22 st3 st21"></text>
<text transform="matrix(1 0 0 1 486.2171 451.7647)" class="st32 st3 st21"></text>
<text transform="matrix(1 0 0 1 486.2171 451.7647)" class="st22 st3 st21"></text>
<text transform="matrix(1 0 0 1 496.8343 597.353)" class="st33 st3 st21"></text>
<text transform="matrix(1 0 0 1 496.8343 597.353)" class="st22 st3 st21"></text>
<text transform="matrix(1 0 0 1 507.4514 451.7647)" class="st32 st3 st21"></text>
<text transform="matrix(1 0 0 1 507.4514 451.7647)" class="st22 st3 st21"></text>
<text transform="matrix(1 0 0 1 518.0686 451.7647)" class="st32 st3 st21"></text>
<text transform="matrix(1 0 0 1 518.0686 451.7647)" class="st22 st3 st21"></text>
<text transform="matrix(1 0 0 1 528.6857 451.7647)" class="st32 st3 st21"></text>
<text transform="matrix(1 0 0 1 528.6857 451.7647)" class="st22 st3 st21"></text>
<text transform="matrix(1 0 0 1 539.3029 451.7647)" class="st32 st3 st21"></text>
<text transform="matrix(1 0 0 1 539.3029 451.7647)" class="st22 st3 st21"></text>
<text transform="matrix(1 0 0 1 549.92 597.353)" class="st33 st3 st21"></text>
<text transform="matrix(1 0 0 1 549.92 597.353)" class="st22 st3 st21"></text>
<text transform="matrix(1 0 0 1 560.5371 597.353)" class="st33 st3 st21"></text>
<text transform="matrix(1 0 0 1 560.5371 597.353)" class="st22 st3 st21"></text>
<text transform="matrix(1 0 0 1 571.1543 694.4117)" class="st34 st3 st21"></text>
<text transform="matrix(1 0 0 1 571.1543 694.4117)" class="st22 st3 st21"></text>
<text transform="matrix(1 0 0 1 581.7714 694.4117)" class="st34 st3 st21"></text>
<text transform="matrix(1 0 0 1 581.7714 694.4117)" class="st22 st3 st21"></text>
<text transform="matrix(1 0 0 1 592.3885 597.353)" class="st33 st3 st21"></text>
<text transform="matrix(1 0 0 1 592.3885 597.353)" class="st22 st3 st21"></text>
<text transform="matrix(1 0 0 1 603.0057 597.353)" class="st33 st3 st21"></text>
<text transform="matrix(1 0 0 1 603.0057 597.353)" class="st22 st3 st21"></text>
<text transform="matrix(1 0 0 1 613.6229 451.7647)" class="st32 st3 st21"></text>
<text transform="matrix(1 0 0 1 613.6229 451.7647)" class="st22 st3 st21"></text>
<text transform="matrix(1 0 0 1 624.24 451.7647)" class="st32 st3 st21"></text>
<text transform="matrix(1 0 0 1 624.24 451.7647)" class="st22 st3 st21"></text>
<text transform="matrix(1 0 0 1 634.8571 63.5294)" class="st23 st3 st21"></text>
<text transform="matrix(1 0 0 1 634.8571 63.5294)" class="st22 st3 st21"></text>
<text transform="matrix(1 0 0 1 645.4743 63.5294)" class="st23 st3 st21"></text>
<text transform="matrix(1 0 0 1 645.4743 63.5294)" class="st22 st3 st21"></text>
<text transform="matrix(1 0 0 1 656.0914 63.5294)" class="st23 st3 st21"></text>
<text transform="matrix(1 0 0 1 656.0914 63.5294)" class="st22 st3 st21"></text>
<text transform="matrix(1 0 0 1 666.7086 63.5294)" class="st23 st3 st21"></text>
<text transform="matrix(1 0 0 1 666.7086 63.5294)" class="st22 st3 st21"></text>
<text transform="matrix(1 0 0 1 677.3257 63.5294)" class="st23 st3 st21"></text>
<text transform="matrix(1 0 0 1 677.3257 63.5294)" class="st22 st3 st21"></text>
<text transform="matrix(1 0 0 1 687.9429 645.8823)" class="st35 st3 st21"></text>
<text transform="matrix(1 0 0 1 687.9429 645.8823)" class="st22 st3 st21"></text>
<text transform="matrix(1 0 0 1 698.56 645.8823)" class="st35 st3 st21"></text>
<text transform="matrix(1 0 0 1 698.56 645.8823)" class="st22 st3 st21"></text>
<text transform="matrix(1 0 0 1 709.1771 63.5294)" class="st23 st3 st21"></text>
<text transform="matrix(1 0 0 1 709.1771 63.5294)" class="st22 st3 st21"></text>
<text transform="matrix(1 0 0 1 719.7943 451.7647)" class="st32 st3 st21"></text>
<text transform="matrix(1 0 0 1 719.7943 451.7647)" class="st22 st3 st21"></text>
<text transform="matrix(1 0 0 1 730.4114 791.4706)" class="st36 st3 st21"></text>
<text transform="matrix(1 0 0 1 730.4114 791.4706)" class="st22 st3 st21"></text>
<text transform="matrix(1 0 0 1 741.0286 742.9412)" class="st37 st3 st21"></text>
<text transform="matrix(1 0 0 1 741.0286 742.9412)" class="st22 st3 st21"></text>
<text transform="matrix(1 0 0 1 751.6457 742.9412)" class="st37 st3 st21"></text>
<text transform="matrix(1 0 0 1 751.6457 742.9412)" class="st22 st3 st21"></text>
<text transform="matrix(1 0 0 1 762.2629 742.9412)" class="st37 st3 st21"></text>
<text transform="matrix(1 0 0 1 762.2629 742.9412)" class="st22 st3 st21"></text>
<text transform="matrix(1 0 0 1 772.88 742.9412)" class="st37 st3 st21"></text>
<text transform="matrix(1 0 0 1 772.88 742.9412)" class="st22 st3 st21"></text>
<text transform="matrix(1 0 0 1 783.4971 306.1765)" class="st24 st3 st21"></text>
<text transform="matrix(1 0 0 1 783.4971 306.1765)" class="st22 st3 st21"></text>
<text transform="matrix(1 0 0 1 794.1143 306.1765)" class="st24 st3 st21"></text>
<text transform="matrix(1 0 0 1 794.1143 306.1765)" class="st22 st3 st21"></text>
<text transform="matrix(1 0 0 1 804.7314 306.1765)" class="st24 st3 st21"></text>
<text transform="matrix(1 0 0 1 804.7314 306.1765)" class="st22 st3 st21"></text>
<text transform="matrix(1 0 0 1 815.3486 306.1765)" class="st24 st3 st21"></text>
<text transform="matrix(1 0 0 1 815.3486 306.1765)" class="st22 st3 st21"></text>
<text transform="matrix(1 0 0 1 825.9657 306.1765)" class="st24 st3 st21"></text>
<text transform="matrix(1 0 0 1 825.9657 306.1765)" class="st22 st3 st21"></text>
</svg>
