<svg viewBox="0 0 900 400"><g transform="translate(110,15)"><g class="x axis" transform="translate(0,325)" fill="none" font-size="10" font-family="sans-serif" text-anchor="middle"><path class="domain" stroke="#000" d="M0.5,6V0.5H730.5V6"></path><g class="tick" opacity="1" transform="translate(0.5,0)"><line stroke="#000" y2="6"></line><text fill="#000" y="9" dy="0.71em">1e-2</text></g><g class="tick" opacity="1" transform="translate(110.37594841735311,0)"><line stroke="#000" y2="6"></line><text fill="#000" y="9" dy="0.71em">2e-2</text></g><g class="tick" opacity="1" transform="translate(174.64925797267674,0)"><line stroke="#000" y2="6"></line><text fill="#000" y="9" dy="0.71em">3e-2</text></g><g class="tick" opacity="1" transform="translate(220.25189683470623,0)"><line stroke="#000" y2="6"></line><text fill="#000" y="9" dy="0.71em">4e-2</text></g><g class="tick" opacity="1" transform="translate(255.62405158264684,0)"><line stroke="#000" y2="6"></line><text fill="#000" y="9" dy="0.71em">5e-2</text></g><g class="tick" opacity="1" transform="translate(284.5252063900299,0)"><line stroke="#000" y2="6"></line><text fill="#000" y="9" dy="0.71em"></text></g><g class="tick" opacity="1" transform="translate(308.96078460520374,0)"><line stroke="#000" y2="6"></line><text fill="#000" y="9" dy="0.71em"></text></g><g class="tick" opacity="1" transform="translate(330.12784525205933,0)"><line stroke="#000" y2="6"></line><text fill="#000" y="9" dy="0.71em"></text></g><g class="tick" opacity="1" transform="translate(348.7985159453536,0)"><line stroke="#000" y2="6"></line><text fill="#000" y="9" dy="0.71em"></text></g><g class="tick" opacity="1" transform="translate(365.5,0)"><line stroke="#000" y2="6"></line><text fill="#000" y="9" dy="0.71em">1e-1</text></g><g class="tick" opacity="1" transform="translate(475.3759484173531,0)"><line stroke="#000" y2="6"></line><text fill="#000" y="9" dy="0.71em">2e-1</text></g><g class="tick" opacity="1" transform="translate(539.6492579726768,0)"><line stroke="#000" y2="6"></line><text fill="#000" y="9" dy="0.71em">3e-1</text></g><g class="tick" opacity="1" transform="translate(585.2518968347063,0)"><line stroke="#000" y2="6"></line><text fill="#000" y="9" dy="0.71em">4e-1</text></g><g class="tick" opacity="1" transform="translate(620.6240515826468,0)"><line stroke="#000" y2="6"></line><text fill="#000" y="9" dy="0.71em">5e-1</text></g><g class="tick" opacity="1" transform="translate(649.5252063900299,0)"><line stroke="#000" y2="6"></line><text fill="#000" y="9" dy="0.71em"></text></g><g class="tick" opacity="1" transform="translate(673.9607846052038,0)"><line stroke="#000" y2="6"></line><text fill="#000" y="9" dy="0.71em"></text></g><g class="tick" opacity="1" transform="translate(695.1278452520593,0)"><line stroke="#000" y2="6"></line><text fill="#000" y="9" dy="0.71em"></text></g><g class="tick" opacity="1" transform="translate(713.7985159453535,0)"><line stroke="#000" y2="6"></line><text fill="#000" y="9" dy="0.71em"></text></g><g class="tick" opacity="1" transform="translate(730.5,0)"><line stroke="#000" y2="6"></line><text fill="#000" y="9" dy="0.71em">1e+0</text></g></g><circle cx="730" cy="200" r="15" class="Brawn" style="fill: rgb(81, 81, 81);"></circle><circle cx="644.5596297072392" cy="200" r="15" class="Mercedes" style="fill: rgb(81, 81, 81);"></circle><circle cx="520.4785874775295" cy="200" r="15" class="RedBull" style="fill: rgb(81, 81, 81);"></circle><circle cx="494.5404621653188" cy="200" r="15" class="McLaren" style="fill: rgb(81, 81, 81);"></circle><circle cx="485.8125247387632" cy="200" r="15" class="Ferrari" style="fill: rgb(81, 81, 81);"></circle><circle cx="459.76761849311845" cy="200" r="15" class="AlfaRomeo" style="fill: rgb(81, 81, 81);"></circle><circle cx="445.97479392700507" cy="200" r="15" class="Matra" style="fill: rgb(81, 81, 81);"></circle><circle cx="435.03821753011033" cy="200" r="15" class="Williams" style="fill: rgb(81, 81, 81);"></circle><circle cx="417.80922042051577" cy="200" r="15" class="Lotus" style="fill: rgb(81, 81, 81);"></circle><circle cx="405.404878505938" cy="200" r="15" class="Brabham" style="fill: rgb(81, 81, 81);"></circle><circle cx="400.3721547479406" cy="200" r="15" class="Benetton" style="fill: rgb(81, 81, 81);"></circle><circle cx="373.130884228088" cy="200" r="15" class="Cooper" style="fill: rgb(81, 81, 81);"></circle><circle cx="349.8916700757653" cy="200" r="15" class="Maserati" style="fill: rgb(81, 81, 81);"></circle><circle cx="317.42817434080524" cy="200" r="15" class="Renault" style="fill: rgb(81, 81, 81);"></circle><circle cx="306.10067862942293" cy="200" r="15" class="Tyrrell" style="fill: rgb(81, 81, 81);"></circle><circle cx="240.01571991471982" cy="200" r="15" class="BRM" style="fill: rgb(81, 81, 81);"></circle></g></svg>
