<svg viewBox="0 0 900 400"><g transform="translate(110,15)"><g class="x axis" transform="translate(0,325)" fill="none" font-size="10" font-family="sans-serif" text-anchor="middle"><path class="domain" stroke="#000" d="M0.5,6V0.5H730.5V6"></path><g class="tick" opacity="1" transform="translate(0.5,0)"><line stroke="#000" y2="6"></line><text fill="#000" y="9" dy="0.71em">1e-2</text></g><g class="tick" opacity="1" transform="translate(110.37594841735311,0)"><line stroke="#000" y2="6"></line><text fill="#000" y="9" dy="0.71em">2e-2</text></g><g class="tick" opacity="1" transform="translate(174.64925797267674,0)"><line stroke="#000" y2="6"></line><text fill="#000" y="9" dy="0.71em">3e-2</text></g><g class="tick" opacity="1" transform="translate(220.25189683470623,0)"><line stroke="#000" y2="6"></line><text fill="#000" y="9" dy="0.71em">4e-2</text></g><g class="tick" opacity="1" transform="translate(255.62405158264684,0)"><line stroke="#000" y2="6"></line><text fill="#000" y="9" dy="0.71em">5e-2</text></g><g class="tick" opacity="1" transform="translate(284.5252063900299,0)"><line stroke="#000" y2="6"></line><text fill="#000" y="9" dy="0.71em"></text></g><g class="tick" opacity="1" transform="translate(308.96078460520374,0)"><line stroke="#000" y2="6"></line><text fill="#000" y="9" dy="0.71em"></text></g><g class="tick" opacity="1" transform="translate(330.12784525205933,0)"><line stroke="#000" y2="6"></line><text fill="#000" y="9" dy="0.71em"></text></g><g class="tick" opacity="1" transform="translate(348.7985159453536,0)"><line stroke="#000" y2="6"></line><text fill="#000" y="9" dy="0.71em"></text></g><g class="tick" opacity="1" transform="translate(365.5,0)"><line stroke="#000" y2="6"></line><text fill="#000" y="9" dy="0.71em">1e-1</text></g><g class="tick" opacity="1" transform="translate(475.3759484173531,0)"><line stroke="#000" y2="6"></line><text fill="#000" y="9" dy="0.71em">2e-1</text></g><g class="tick" opacity="1" transform="translate(539.6492579726768,0)"><line stroke="#000" y2="6"></line><text fill="#000" y="9" dy="0.71em">3e-1</text></g><g class="tick" opacity="1" transform="translate(585.2518968347063,0)"><line stroke="#000" y2="6"></line><text fill="#000" y="9" dy="0.71em">4e-1</text></g><g class="tick" opacity="1" transform="translate(620.6240515826468,0)"><line stroke="#000" y2="6"></line><text fill="#000" y="9" dy="0.71em">5e-1</text></g><g class="tick" opacity="1" transform="translate(649.5252063900299,0)"><line stroke="#000" y2="6"></line><text fill="#000" y="9" dy="0.71em"></text></g><g class="tick" opacity="1" transform="translate(673.9607846052038,0)"><line stroke="#000" y2="6"></line><text fill="#000" y="9" dy="0.71em"></text></g><g class="tick" opacity="1" transform="translate(695.1278452520593,0)"><line stroke="#000" y2="6"></line><text fill="#000" y="9" dy="0.71em"></text></g><g class="tick" opacity="1" transform="translate(713.7985159453535,0)"><line stroke="#000" y2="6"></line><text fill="#000" y="9" dy="0.71em"></text></g><g class="tick" opacity="1" transform="translate(730.5,0)"><line stroke="#000" y2="6"></line><text fill="#000" y="9" dy="0.71em">1e+0</text></g></g><circle cx="730" cy="200" r="15" class="Brawn" style="opacity: 0.3; fill: rgb(128, 240, 128);"></circle><circle cx="644.5596297072392" cy="200" r="15" class="Mercedes" style="opacity: 0.411594; fill: rgb(46, 210, 190);"></circle><circle cx="520.4785874775295" cy="200" r="15" class="RedBull" style="opacity: 0.442029; fill: rgb(32, 65, 255);"></circle><circle cx="494.5404621653188" cy="200" r="15" class="McLaren" style="opacity: 0.827536; fill: rgb(251, 135, 3);"></circle><circle cx="485.8125247387632" cy="200" r="15" class="Ferrari" style="opacity: 1; fill: rgb(220, 3, 0);"></circle><circle cx="459.76761849311845" cy="200" r="15" class="AlfaRomeo" style="opacity: 0.401449; fill: rgb(155, 5, 2);"></circle><circle cx="445.97479392700507" cy="200" r="15" class="Matra" style="opacity: 0.350725; fill: rgb(240, 128, 128);"></circle><circle cx="435.03821753011033" cy="200" r="15" class="Williams" style="opacity: 0.746377; fill: rgb(32, 134, 192);"></circle><circle cx="417.80922042051577" cy="200" r="15" class="Lotus" style="opacity: 0.726087; fill: rgb(85, 85, 85);"></circle><circle cx="405.404878505938" cy="200" r="15" class="Brabham" style="opacity: 0.604348; fill: rgb(244, 210, 88);"></circle><circle cx="400.3721547479406" cy="200" r="15" class="Benetton" style="opacity: 0.452174; fill: rgb(0, 162, 4);"></circle><circle cx="373.130884228088" cy="200" r="15" class="Cooper" style="opacity: 0.482609; fill: rgb(0, 66, 37);"></circle><circle cx="349.8916700757653" cy="200" r="15" class="Maserati" style="opacity: 0.401449; fill: rgb(255, 104, 42);"></circle><circle cx="317.42817434080524" cy="200" r="15" class="Renault" style="opacity: 0.563768; fill: rgb(253, 245, 3);"></circle><circle cx="306.10067862942293" cy="200" r="15" class="Tyrrell" style="opacity: 0.584058; fill: rgb(128, 0, 128);"></circle><circle cx="240.01571991471982" cy="200" r="15" class="BRM" style="opacity: 0.513043; fill: rgb(139, 69, 19);"></circle></g></svg>
