<svg xmlns='http://www.w3.org/2000/svg' version='1.1' width='1522px' height='1474px'><svg xmlns="http://www.w3.org/2000/svg" id="graphic" width="1507.2" height="1395.8399560546875" x="14.399993896484375" y="77.66667175292969"><g class="axes"><g class="facet" transform="translate(86.4000015258789, 19.200000762939453)" opacity="1"><text class="facet-title" y="0" font-size="1.25rem" font-weight="bold" dominant-baseline="middle" x="0" clip-path="url(#facet-clip-0-126)" fill="rgb(136, 136, 136)" opacity="0"/><g class="plot"><clipPath class="facet-clip" id="facet-clip-0-126"><rect width="1439.999951171875" height="1415.0399560546873" transform="translate(-19.200000762939453, -76.80000305175781)"/></clipPath><clipPath class="facet-clip-plot" id="facet-clip-0-plot-126"><rect width="1401.5999511718749" height="1261.4399560546874"/></clipPath><g class="bg"><rect fill="none" opacity="1" style="fill: none;" width="1401.5999511718749" height="1261.4399560546874"/><image opacity="1" preserveAspectRatio="none" width="1401.5999511718749" height="1261.4399560546874"/></g><g class="interaction"><rect style="opacity: 0;" width="1401.5999511718749" height="1261.4399560546874"/></g><g class="annotations"/><g class="axes"><g class="y axis" transform="translate(00)" fill="none" font-size="10" font-family="sans-serif" text-anchor="end" style="font-family: Source Sans Pro;"><path class="domain" stroke="#eeeeee" d="M0.5,1261.9399560546874V0.5" stroke-dasharray="0" style="visibility: hidden;"/><g class="tick" opacity="1" transform="translate(0, 1261.93994140625)" style="visibility: visible;"><line stroke="#eeeeee" x2="1401.5999511718749" stroke-dasharray="0"/><text fill="rgb(153, 153, 153)" x="-3" dy="0.33em" opacity="1" text-anchor="end" font-size="1rem">0</text></g><g class="tick" opacity="1" transform="translate(0, 1104.260009765625)" style="visibility: visible;"><line stroke="#eeeeee" x2="1401.5999511718749" stroke-dasharray="0"/><text fill="rgb(153, 153, 153)" x="-3" dy="0.33em" opacity="1" text-anchor="end" font-size="1rem">2</text></g><g class="tick" opacity="1" transform="translate(0, 946.5799560546875)" style="visibility: visible;"><line stroke="#eeeeee" x2="1401.5999511718749" stroke-dasharray="0"/><text fill="rgb(153, 153, 153)" x="-3" dy="0.33em" opacity="1" text-anchor="end" font-size="1rem">4</text></g><g class="tick" opacity="1" transform="translate(0, 788.8999633789062)" style="visibility: visible;"><line stroke="#eeeeee" x2="1401.5999511718749" stroke-dasharray="0"/><text fill="rgb(153, 153, 153)" x="-3" dy="0.33em" opacity="1" text-anchor="end" font-size="1rem">6</text></g><g class="tick" opacity="1" transform="translate(0, 631.219970703125)" style="visibility: visible;"><line stroke="#eeeeee" x2="1401.5999511718749" stroke-dasharray="0"/><text fill="rgb(153, 153, 153)" x="-3" dy="0.33em" opacity="1" text-anchor="end" font-size="1rem">8</text></g><g class="tick" opacity="1" transform="translate(0, 473.53997802734375)" style="visibility: visible;"><line stroke="#eeeeee" x2="1401.5999511718749" stroke-dasharray="0"/><text fill="rgb(153, 153, 153)" x="-3" dy="0.33em" opacity="1" text-anchor="end" font-size="1rem">10</text></g><g class="tick" opacity="1" transform="translate(0, 315.8599853515625)" style="visibility: visible;"><line stroke="#eeeeee" x2="1401.5999511718749" stroke-dasharray="0"/><text fill="rgb(153, 153, 153)" x="-3" dy="0.33em" opacity="1" text-anchor="end" font-size="1rem">12</text></g><g class="tick" opacity="1" transform="translate(0, 158.17999267578125)" style="visibility: visible;"><line stroke="#eeeeee" x2="1401.5999511718749" stroke-dasharray="0"/><text fill="rgb(153, 153, 153)" x="-3" dy="0.33em" opacity="1" text-anchor="end" font-size="1rem">14</text></g><g class="tick" opacity="1" transform="translate(0,0.5)" style="visibility: visible;"><line stroke="#eeeeee" x2="1401.5999511718749" stroke-dasharray="0"/><text fill="rgb(153, 153, 153)" x="-3" dy="0.33em" opacity="1" text-anchor="end" font-size="1rem">16</text></g></g><text class="y axis-label" transform="translate(-57.599998474121094, 630.719970703125) rotate(-90)" fill="#999999" text-anchor="middle" dominant-baseline="middle" font-size="1rem">Championship Titles</text><g class="x axis" transform="translate(0, 1261.43994140625)" fill="none" font-size="10" font-family="sans-serif" text-anchor="middle" style="font-family: Source Sans Pro;"><path class="domain" stroke="#eeeeee" d="M0.5,0.5H1402.0999511718749" stroke-dasharray="0" style="visibility: hidden;"/><g class="tick" opacity="1" transform="translate(0.5, 0)"><line stroke="#eeeeee" y2="-1261.4399560546874" stroke-dasharray="0"/><text fill="rgb(153, 153, 153)" y="3" dy="-9" opacity="1" dominant-baseline="central" style="text-anchor: middle; visibility: visible;" font-size="1rem" transform="translate(0, 15)" dx="0">0</text></g><g class="tick" opacity="1" transform="translate(100.6142807006836, 0)"><line stroke="#eeeeee" y2="-1261.4399560546874" stroke-dasharray="0"/><text fill="rgb(153, 153, 153)" y="3" dy="-9" opacity="1" dominant-baseline="central" style="text-anchor: middle; visibility: visible;" font-size="1rem" transform="translate(0, 15)" dx="0">5</text></g><g class="tick" opacity="1" transform="translate(200.7285614013672, 0)"><line stroke="#eeeeee" y2="-1261.4399560546874" stroke-dasharray="0"/><text fill="rgb(153, 153, 153)" y="3" dy="-9" opacity="1" dominant-baseline="central" style="text-anchor: middle; visibility: visible;" font-size="1rem" transform="translate(0, 15)" dx="0">10</text></g><g class="tick" opacity="1" transform="translate(300.84283447265625, 0)"><line stroke="#eeeeee" y2="-1261.4399560546874" stroke-dasharray="0"/><text fill="rgb(153, 153, 153)" y="3" dy="-9" opacity="1" dominant-baseline="central" style="text-anchor: middle; visibility: visible;" font-size="1rem" transform="translate(0, 15)" dx="0">15</text></g><g class="tick" opacity="1" transform="translate(400.9571228027344, 0)"><line stroke="#eeeeee" y2="-1261.4399560546874" stroke-dasharray="0"/><text fill="rgb(153, 153, 153)" y="3" dy="-9" opacity="1" dominant-baseline="central" style="text-anchor: middle; visibility: visible;" font-size="1rem" transform="translate(0, 15)" dx="0">20</text></g><g class="tick" opacity="1" transform="translate(501.0714111328125, 0)"><line stroke="#eeeeee" y2="-1261.4399560546874" stroke-dasharray="0"/><text fill="rgb(153, 153, 153)" y="3" dy="-9" opacity="1" dominant-baseline="central" style="text-anchor: middle; visibility: visible;" font-size="1rem" transform="translate(0, 15)" dx="0">25</text></g><g class="tick" opacity="1" transform="translate(601.1856689453125, 0)"><line stroke="#eeeeee" y2="-1261.4399560546874" stroke-dasharray="0"/><text fill="rgb(153, 153, 153)" y="3" dy="-9" opacity="1" dominant-baseline="central" style="text-anchor: middle; visibility: visible;" font-size="1rem" transform="translate(0, 15)" dx="0">30</text></g><g class="tick" opacity="1" transform="translate(701.2999877929688, 0)"><line stroke="#eeeeee" y2="-1261.4399560546874" stroke-dasharray="0"/><text fill="rgb(153, 153, 153)" y="3" dy="-9" opacity="1" dominant-baseline="central" style="text-anchor: middle; visibility: visible;" font-size="1rem" transform="translate(0, 15)" dx="0">35</text></g><g class="tick" opacity="1" transform="translate(801.4142456054688, 0)"><line stroke="#eeeeee" y2="-1261.4399560546874" stroke-dasharray="0"/><text fill="rgb(153, 153, 153)" y="3" dy="-9" opacity="1" dominant-baseline="central" style="text-anchor: middle; visibility: visible;" font-size="1rem" transform="translate(0, 15)" dx="0">40</text></g><g class="tick" opacity="1" transform="translate(901.528564453125, 0)"><line stroke="#eeeeee" y2="-1261.4399560546874" stroke-dasharray="0"/><text fill="rgb(153, 153, 153)" y="3" dy="-9" opacity="1" dominant-baseline="central" style="text-anchor: middle; visibility: visible;" font-size="1rem" transform="translate(0, 15)" dx="0">45</text></g><g class="tick" opacity="1" transform="translate(1001.642822265625, 0)"><line stroke="#eeeeee" y2="-1261.4399560546874" stroke-dasharray="0"/><text fill="rgb(153, 153, 153)" y="3" dy="-9" opacity="1" dominant-baseline="central" style="text-anchor: middle; visibility: visible;" font-size="1rem" transform="translate(0, 15)" dx="0">50</text></g><g class="tick" opacity="1" transform="translate(1101.757080078125, 0)"><line stroke="#eeeeee" y2="-1261.4399560546874" stroke-dasharray="0"/><text fill="rgb(153, 153, 153)" y="3" dy="-9" opacity="1" dominant-baseline="central" style="text-anchor: middle; visibility: visible;" font-size="1rem" transform="translate(0, 15)" dx="0">55</text></g><g class="tick" opacity="1" transform="translate(1201.871337890625, 0)"><line stroke="#eeeeee" y2="-1261.4399560546874" stroke-dasharray="0"/><text fill="rgb(153, 153, 153)" y="3" dy="-9" opacity="1" dominant-baseline="central" style="text-anchor: middle; visibility: visible;" font-size="1rem" transform="translate(0, 15)" dx="0">60</text></g><g class="tick" opacity="1" transform="translate(1301.9857177734375, 0)"><line stroke="#eeeeee" y2="-1261.4399560546874" stroke-dasharray="0"/><text fill="rgb(153, 153, 153)" y="3" dy="-9" opacity="1" dominant-baseline="central" style="text-anchor: middle; visibility: visible;" font-size="1rem" transform="translate(0, 15)" dx="0">65</text></g><g class="tick" opacity="1" transform="translate(1402.0999755859375, 0)"><line stroke="#eeeeee" y2="-1261.4399560546874" stroke-dasharray="0"/><text fill="rgb(153, 153, 153)" y="3" dy="-9" opacity="1" dominant-baseline="central" style="text-anchor: middle; visibility: visible;" font-size="1rem" transform="translate(0, 15)" dx="0">70</text></g></g><text class="x axis-label" transform="translate(700.7999877929688, 1357.43994140625)" fill="#999999" text-anchor="middle" dominant-baseline="middle" font-size="1rem">Years Competed</text></g></g></g></g><g class="fits"/><g class="violins"/><g class="lines"/><g class="data-points" style=""><path class="data-point" d="M10.255912124290898,0A10.255912124290898,10.255912124290898,0,1,1,-10.255912124290898,0A10.255912124290898,10.255912124290898,0,1,1,10.255912124290898,0" vector-effect="non-scaling-stroke" stroke="#11A579" fill="#11A579" fill-opacity="1" stroke-opacity="1" stroke-width="1" transform="translate(306.65142822265625, 1122.9599609375)"/><path class="data-point" d="M7.252025010339424,0A7.252025010339424,7.252025010339424,0,1,1,-7.252025010339424,0A7.252025010339424,7.252025010339424,0,1,1,7.252025010339424,0" vector-effect="non-scaling-stroke" stroke="#CC503E" fill="#CC503E" fill-opacity="1" stroke-opacity="1" stroke-width="1" transform="translate(406.7657165527344, 1122.9599609375)"/><path class="data-point" d="M12.560875775668096,0A12.560875775668096,12.560875775668096,0,1,1,-12.560875775668096,0A12.560875775668096,12.560875775668096,0,1,1,12.560875775668096,0" vector-effect="non-scaling-stroke" stroke="#3969AC" fill="#3969AC" fill-opacity="1" stroke-opacity="1" stroke-width="1" transform="translate(707.1085205078125, 965.2799682617188)"/><path class="data-point" d="M7.252025010339424,0A7.252025010339424,7.252025010339424,0,1,1,-7.252025010339424,0A7.252025010339424,7.252025010339424,0,1,1,7.252025010339424,0" vector-effect="non-scaling-stroke" stroke="#F2B701" fill="#F2B701" fill-opacity="1" stroke-opacity="1" stroke-width="1" transform="translate(106.42285919189453, 1201.7999267578125)"/><path class="data-point" d="M7.252025010339424,0A7.252025010339424,7.252025010339424,0,1,1,-7.252025010339424,0A7.252025010339424,7.252025010339424,0,1,1,7.252025010339424,0" vector-effect="non-scaling-stroke" stroke="#7F3C8D" fill="#7F3C8D" fill-opacity="1" stroke-opacity="1" stroke-width="1" transform="translate(526.90283203125, 1201.7999267578125)"/><path class="data-point" d="M7.252025010339424,0A7.252025010339424,7.252025010339424,0,1,1,-7.252025010339424,0A7.252025010339424,7.252025010339424,0,1,1,7.252025010339424,0" vector-effect="non-scaling-stroke" stroke="#80BA5A" fill="#80BA5A" fill-opacity="1" stroke-opacity="1" stroke-width="1" transform="translate(466.8342590332031, 1122.9599609375)"/><path class="data-point" d="M21.756075031018273,0A21.756075031018273,21.756075031018273,0,1,1,-21.756075031018273,0A21.756075031018273,21.756075031018273,0,1,1,21.756075031018273,0" vector-effect="non-scaling-stroke" stroke="#E68310" fill="#E68310" fill-opacity="1" stroke-opacity="1" stroke-width="1" transform="translate(1488, 98.04000091552734)"/><path class="data-point" d="M16.216020897647567,0A16.216020897647567,16.216020897647567,0,1,1,-16.216020897647567,0A16.216020897647567,16.216020897647567,0,1,1,16.216020897647567,0" vector-effect="non-scaling-stroke" stroke="#CF1C90" fill="#CF1C90" fill-opacity="1" stroke-opacity="1" stroke-width="1" transform="translate(947.3828125, 807.5999755859375)"/><path class="data-point" d="M7.252025010339424,0A7.252025010339424,7.252025010339424,0,1,1,-7.252025010339424,0A7.252025010339424,7.252025010339424,0,1,1,7.252025010339424,0" vector-effect="non-scaling-stroke" stroke="#008695" fill="#008695" fill-opacity="1" stroke-opacity="1" stroke-width="1" transform="translate(306.65142822265625, 1201.7999267578125)"/><path class="data-point" d="M7.252025010339424,0A7.252025010339424,7.252025010339424,0,1,1,-7.252025010339424,0A7.252025010339424,7.252025010339424,0,1,1,7.252025010339424,0" vector-effect="non-scaling-stroke" stroke="#F97B72" fill="#F97B72" fill-opacity="1" stroke-opacity="1" stroke-width="1" transform="translate(206.53713989257812, 1201.7999267578125)"/><path class="data-point" d="M19.187054678978733,0A19.187054678978733,19.187054678978733,0,1,1,-19.187054678978733,0A19.187054678978733,19.187054678978733,0,1,1,19.187054678978733,0" vector-effect="non-scaling-stroke" stroke="#4B4B8F" fill="#4B4B8F" fill-opacity="1" stroke-opacity="1" stroke-width="1" transform="translate(1147.6114501953125, 334.55999755859375)"/><path class="data-point" d="M12.560875775668096,0A12.560875775668096,12.560875775668096,0,1,1,-12.560875775668096,0A12.560875775668096,12.560875775668096,0,1,1,12.560875775668096,0" vector-effect="non-scaling-stroke" stroke="#A5AA99" fill="#A5AA99" fill-opacity="1" stroke-opacity="1" stroke-width="1" transform="translate(326.6742858886719, 728.7599487304688)"/><path class="data-point" d="M7.252025010339424,0A7.252025010339424,7.252025010339424,0,1,1,-7.252025010339424,0A7.252025010339424,7.252025010339424,0,1,1,7.252025010339424,0" vector-effect="non-scaling-stroke" stroke="#ca61a7" fill="#ca61a7" fill-opacity="1" stroke-opacity="1" stroke-width="1" transform="translate(386.74285888671875, 965.2799682617188)"/><path class="data-point" d="M7.252025010339424,0A7.252025010339424,7.252025010339424,0,1,1,-7.252025010339424,0A7.252025010339424,7.252025010339424,0,1,1,7.252025010339424,0" vector-effect="non-scaling-stroke" stroke="#009ca7" fill="#009ca7" fill-opacity="1" stroke-opacity="1" stroke-width="1" transform="translate(627.0171508789062, 1122.9599609375)"/><path class="data-point" d="M7.252025010339424,0A7.252025010339424,7.252025010339424,0,1,1,-7.252025010339424,0A7.252025010339424,7.252025010339424,0,1,1,7.252025010339424,0" vector-effect="non-scaling-stroke" stroke="#b87733" fill="#b87733" fill-opacity="1" stroke-opacity="1" stroke-width="1" transform="translate(667.0628662109375, 1122.9599609375)"/><path class="data-point" d="M19.187054678978733,0A19.187054678978733,19.187054678978733,0,1,1,-19.187054678978733,0A19.187054678978733,19.187054678978733,0,1,1,19.187054678978733,0" vector-effect="non-scaling-stroke" stroke="#7780dd" fill="#7780dd" fill-opacity="1" stroke-opacity="1" stroke-width="1" transform="translate(987.4285278320312, 728.7599487304688)"/></g></svg><svg xmlns="http://www.w3.org/2000/svg" id="overlay" width="1507.2" height="1395.8399560546875" x="14.399993896484375" y="77.66667175292969"><g class="data-labels"/><g class="boxes"/></svg></svg>