<svg viewBox="0 0 800 400"><g transform="translate(110,15)"><g class="x axis" fill="none" font-size="10" font-family="sans-serif" text-anchor="middle"><path class="domain" stroke="currentColor" d="M0.5,325V0.5H630.5V325"></path><g class="tick" opacity="1" transform="translate(0.5,0)"><line stroke="currentColor" y2="325"></line><text fill="currentColor" y="328" dy="0.71em" class="axis_text">1950</text></g><g class="tick" opacity="1" transform="translate(45.5,0)"><line stroke="currentColor" y2="325"></line><text fill="currentColor" y="328" dy="0.71em" class="axis_text">1955</text></g><g class="tick" opacity="1" transform="translate(90.5,0)"><line stroke="currentColor" y2="325"></line><text fill="currentColor" y="328" dy="0.71em" class="axis_text">1960</text></g><g class="tick" opacity="1" transform="translate(135.5,0)"><line stroke="currentColor" y2="325"></line><text fill="currentColor" y="328" dy="0.71em" class="axis_text">1965</text></g><g class="tick" opacity="1" transform="translate(180.5,0)"><line stroke="currentColor" y2="325"></line><text fill="currentColor" y="328" dy="0.71em" class="axis_text">1970</text></g><g class="tick" opacity="1" transform="translate(225.5,0)"><line stroke="currentColor" y2="325"></line><text fill="currentColor" y="328" dy="0.71em" class="axis_text">1975</text></g><g class="tick" opacity="1" transform="translate(270.5,0)"><line stroke="currentColor" y2="325"></line><text fill="currentColor" y="328" dy="0.71em" class="axis_text">1980</text></g><g class="tick" opacity="1" transform="translate(315.5,0)"><line stroke="currentColor" y2="325"></line><text fill="currentColor" y="328" dy="0.71em" class="axis_text">1985</text></g><g class="tick" opacity="1" transform="translate(360.5,0)"><line stroke="currentColor" y2="325"></line><text fill="currentColor" y="328" dy="0.71em" class="axis_text">1990</text></g><g class="tick" opacity="1" transform="translate(405.50000000000006,0)"><line stroke="currentColor" y2="325"></line><text fill="currentColor" y="328" dy="0.71em" class="axis_text">1995</text></g><g class="tick" opacity="1" transform="translate(450.5,0)"><line stroke="currentColor" y2="325"></line><text fill="currentColor" y="328" dy="0.71em" class="axis_text">2000</text></g><g class="tick" opacity="1" transform="translate(495.5,0)"><line stroke="currentColor" y2="325"></line><text fill="currentColor" y="328" dy="0.71em" class="axis_text">2005</text></g><g class="tick" opacity="1" transform="translate(540.5,0)"><line stroke="currentColor" y2="325"></line><text fill="currentColor" y="328" dy="0.71em" class="axis_text">2010</text></g><g class="tick" opacity="1" transform="translate(585.5,0)"><line stroke="currentColor" y2="325"></line><text fill="currentColor" y="328" dy="0.71em" class="axis_text">2015</text></g><g class="tick" opacity="1" transform="translate(630.5,0)"><line stroke="currentColor" y2="325"></line><text fill="currentColor" y="328" dy="0.71em" class="axis_text">2020</text></g></g><g class="y axis" fill="none" font-size="10" font-family="sans-serif" text-anchor="end" transform="translate(-10, 0)"><path class="domain" stroke="currentColor" d="M-6,0.5H0.5V325.5H-6"></path><g class="tick" opacity="1" transform="translate(0,19.617647058823536)"><line stroke="currentColor" x2="-6"></line><text fill="currentColor" x="-9" dy="0.32em" class="axis_text" style="text-anchor: end;">Ferrari</text></g><g class="tick" opacity="1" transform="translate(0,38.735294117647065)"><line stroke="currentColor" x2="-6"></line><text fill="currentColor" x="-9" dy="0.32em" class="axis_text" style="text-anchor: end;">Alfa Romeo</text></g><g class="tick" opacity="1" transform="translate(0,57.852941176470594)"><line stroke="currentColor" x2="-6"></line><text fill="currentColor" x="-9" dy="0.32em" class="axis_text" style="text-anchor: end;">Cooper</text></g><g class="tick" opacity="1" transform="translate(0,76.97058823529412)"><line stroke="currentColor" x2="-6"></line><text fill="currentColor" x="-9" dy="0.32em" class="axis_text" style="text-anchor: end;">Maserati</text></g><g class="tick" opacity="1" transform="translate(0,96.08823529411765)"><line stroke="currentColor" x2="-6"></line><text fill="currentColor" x="-9" dy="0.32em" class="axis_text" style="text-anchor: end;">BRM</text></g><g class="tick" opacity="1" transform="translate(0,115.20588235294119)"><line stroke="currentColor" x2="-6"></line><text fill="currentColor" x="-9" dy="0.32em" class="axis_text" style="text-anchor: end;">Mercedes</text></g><g class="tick" opacity="1" transform="translate(0,134.3235294117647)"><line stroke="currentColor" x2="-6"></line><text fill="currentColor" x="-9" dy="0.32em" class="axis_text" style="text-anchor: end;">Lotus</text></g><g class="tick" opacity="1" transform="translate(0,153.44117647058823)"><line stroke="currentColor" x2="-6"></line><text fill="currentColor" x="-9" dy="0.32em" class="axis_text" style="text-anchor: end;">Brabham</text></g><g class="tick" opacity="1" transform="translate(0,172.55882352941177)"><line stroke="currentColor" x2="-6"></line><text fill="currentColor" x="-9" dy="0.32em" class="axis_text" style="text-anchor: end;">McLaren</text></g><g class="tick" opacity="1" transform="translate(0,191.6764705882353)"><line stroke="currentColor" x2="-6"></line><text fill="currentColor" x="-9" dy="0.32em" class="axis_text" style="text-anchor: end;">Matra</text></g><g class="tick" opacity="1" transform="translate(0,210.79411764705884)"><line stroke="currentColor" x2="-6"></line><text fill="currentColor" x="-9" dy="0.32em" class="axis_text" style="text-anchor: end;">Tyrrell</text></g><g class="tick" opacity="1" transform="translate(0,229.91176470588235)"><line stroke="currentColor" x2="-6"></line><text fill="currentColor" x="-9" dy="0.32em" class="axis_text" style="text-anchor: end;">Williams</text></g><g class="tick" opacity="1" transform="translate(0,249.02941176470588)"><line stroke="currentColor" x2="-6"></line><text fill="currentColor" x="-9" dy="0.32em" class="axis_text" style="text-anchor: end;">Renault</text></g><g class="tick" opacity="1" transform="translate(0,268.1470588235294)"><line stroke="currentColor" x2="-6"></line><text fill="currentColor" x="-9" dy="0.32em" class="axis_text" style="text-anchor: end;">Benetton</text></g><g class="tick" opacity="1" transform="translate(0,287.2647058823529)"><line stroke="currentColor" x2="-6"></line><text fill="currentColor" x="-9" dy="0.32em" class="axis_text" style="text-anchor: end;">Red Bull</text></g><g class="tick" opacity="1" transform="translate(0,306.38235294117646)"><line stroke="currentColor" x2="-6"></line><text fill="currentColor" x="-9" dy="0.32em" class="axis_text" style="text-anchor: end;">Brawn GP</text></g></g><line x1="0" x2="630" y1="19.117647058823536" y2="19.117647058823536" opacity="0.9" stroke-width="3" stroke="#DC0300" class="active_years"></line><line x1="0" x2="18" y1="38.235294117647065" y2="38.235294117647065" opacity="0.9" stroke-width="3" stroke="#9B0502" class="active_years"></line><line x1="0" x2="9" y1="57.352941176470594" y2="57.352941176470594" opacity="0.9" stroke-width="3" stroke="#004225" class="active_years"></line><line x1="0" x2="99" y1="76.47058823529412" y2="76.47058823529412" opacity="0.9" stroke-width="3" stroke="#ff682a" class="active_years"></line><line x1="9" x2="18" y1="95.58823529411765" y2="95.58823529411765" opacity="0.9" stroke-width="3" stroke="#8b4513" class="active_years"></line><line x1="18" x2="180" y1="57.352941176470594" y2="57.352941176470594" opacity="0.9" stroke-width="3" stroke="#004225" class="active_years"></line><line x1="36" x2="54" y1="114.70588235294119" y2="114.70588235294119" opacity="0.9" stroke-width="3" stroke="#2ED2BE" class="active_years"></line><line x1="63" x2="252" y1="95.58823529411765" y2="95.58823529411765" opacity="0.9" stroke-width="3" stroke="#8b4513" class="active_years"></line><line x1="72" x2="405.00000000000006" y1="133.8235294117647" y2="133.8235294117647" opacity="0.9" stroke-width="3" stroke="#555555" class="active_years"></line><line x1="108" x2="387" y1="152.94117647058823" y2="152.94117647058823" opacity="0.9" stroke-width="3" stroke="#F4D258" class="active_years"></line><line x1="144" x2="630" y1="172.05882352941177" y2="172.05882352941177" opacity="0.9" stroke-width="3" stroke="#FB8703" class="active_years"></line><line x1="153" x2="207" y1="191.1764705882353" y2="191.1764705882353" opacity="0.9" stroke-width="3" stroke="#f08080" class="active_years"></line><line x1="180" x2="441" y1="210.29411764705884" y2="210.29411764705884" opacity="0.9" stroke-width="3" stroke="#800080" class="active_years"></line><line x1="225" x2="630" y1="229.41176470588235" y2="229.41176470588235" opacity="0.9" stroke-width="3" stroke="#2086C0" class="active_years"></line><line x1="243" x2="323.99999999999994" y1="248.52941176470588" y2="248.52941176470588" opacity="0.9" stroke-width="3" stroke="#FDF503" class="active_years"></line><line x1="261" x2="323.99999999999994" y1="38.235294117647065" y2="38.235294117647065" opacity="0.9" stroke-width="3" stroke="#9B0502" class="active_years"></line><line x1="323.99999999999994" x2="468" y1="267.6470588235294" y2="267.6470588235294" opacity="0.9" stroke-width="3" stroke="#00A204" class="active_years"></line><line x1="468" x2="630" y1="248.52941176470588" y2="248.52941176470588" opacity="0.9" stroke-width="3" stroke="#FDF503" class="active_years"></line><line x1="495" x2="630" y1="286.7647058823529" y2="286.7647058823529" opacity="0.9" stroke-width="3" stroke="#2041FF" class="active_years"></line><line x1="531" x2="540" y1="305.88235294117646" y2="305.88235294117646" opacity="0.9" stroke-width="3" stroke="#80f080" class="active_years"></line><line x1="540" x2="594" y1="133.8235294117647" y2="133.8235294117647" opacity="0.9" stroke-width="3" stroke="#555555" class="active_years"></line><line x1="540" x2="630" y1="114.70588235294119" y2="114.70588235294119" opacity="0.9" stroke-width="3" stroke="#2ED2BE" class="active_years"></line><line x1="612" x2="630" y1="38.235294117647065" y2="38.235294117647065" opacity="0.9" stroke-width="3" stroke="#9B0502" class="active_years"></line><circle cx="0" cy="38.235294117647065" r="4" fill="#9B0502" stroke-width="0" stroke="#333"></circle><circle cx="9" cy="38.235294117647065" r="4" fill="#9B0502" stroke-width="0" stroke="#333"></circle><circle cx="18" cy="19.117647058823536" r="4" fill="#DC0300" stroke-width="0" stroke="#333"></circle><circle cx="27" cy="19.117647058823536" r="4" fill="#DC0300" stroke-width="0" stroke="#333"></circle><circle cx="36" cy="114.70588235294119" r="4" fill="#2ED2BE" stroke-width="0" stroke="#333"></circle><circle cx="45" cy="114.70588235294119" r="4" fill="#2ED2BE" stroke-width="0" stroke="#333"></circle><circle cx="54" cy="19.117647058823536" r="4" fill="#DC0300" stroke-width="0" stroke="#333"></circle><circle cx="63" cy="76.47058823529412" r="4" fill="#ff682a" stroke-width="0" stroke="#333"></circle><circle cx="72" cy="19.117647058823536" r="4" fill="#DC0300" stroke-width="0" stroke="#333"></circle><circle cx="80.99999999999999" cy="57.352941176470594" r="4" fill="#004225" stroke-width="0" stroke="#333"></circle><circle cx="90" cy="57.352941176470594" r="4" fill="#004225" stroke-width="0" stroke="#333"></circle><circle cx="99" cy="19.117647058823536" r="4" fill="#DC0300" stroke-width="0" stroke="#333"></circle><circle cx="108" cy="95.58823529411765" r="4" fill="#8b4513" stroke-width="0" stroke="#333"></circle><circle cx="117" cy="133.8235294117647" r="4" fill="#555555" stroke-width="0" stroke="#333"></circle><circle cx="126" cy="19.117647058823536" r="4" fill="#DC0300" stroke-width="0" stroke="#333"></circle><circle cx="135" cy="133.8235294117647" r="4" fill="#555555" stroke-width="0" stroke="#333"></circle><circle cx="144" cy="152.94117647058823" r="4" fill="#F4D258" stroke-width="0" stroke="#333"></circle><circle cx="153" cy="152.94117647058823" r="4" fill="#F4D258" stroke-width="0" stroke="#333"></circle><circle cx="161.99999999999997" cy="133.8235294117647" r="4" fill="#555555" stroke-width="0" stroke="#333"></circle><circle cx="171" cy="191.1764705882353" r="4" fill="#f08080" stroke-width="0" stroke="#333"></circle><circle cx="180" cy="133.8235294117647" r="4" fill="#555555" stroke-width="0" stroke="#333"></circle><circle cx="189" cy="210.29411764705884" r="4" fill="#800080" stroke-width="0" stroke="#333"></circle><circle cx="198" cy="133.8235294117647" r="4" fill="#555555" stroke-width="0" stroke="#333"></circle><circle cx="207" cy="210.29411764705884" r="4" fill="#800080" stroke-width="0" stroke="#333"></circle><circle cx="216" cy="172.05882352941177" r="4" fill="#FB8703" stroke-width="0" stroke="#333"></circle><circle cx="225" cy="19.117647058823536" r="4" fill="#DC0300" stroke-width="0" stroke="#333"></circle><circle cx="234" cy="172.05882352941177" r="4" fill="#FB8703" stroke-width="0" stroke="#333"></circle><circle cx="243" cy="19.117647058823536" r="4" fill="#DC0300" stroke-width="0" stroke="#333"></circle><circle cx="252" cy="133.8235294117647" r="4" fill="#555555" stroke-width="0" stroke="#333"></circle><circle cx="261" cy="19.117647058823536" r="4" fill="#DC0300" stroke-width="0" stroke="#333"></circle><circle cx="270" cy="229.41176470588235" r="4" fill="#2086C0" stroke-width="0" stroke="#333"></circle><circle cx="279" cy="152.94117647058823" r="4" fill="#F4D258" stroke-width="0" stroke="#333"></circle><circle cx="288" cy="229.41176470588235" r="4" fill="#2086C0" stroke-width="0" stroke="#333"></circle><circle cx="297" cy="152.94117647058823" r="4" fill="#F4D258" stroke-width="0" stroke="#333"></circle><circle cx="306" cy="172.05882352941177" r="4" fill="#FB8703" stroke-width="0" stroke="#333"></circle><circle cx="315" cy="172.05882352941177" r="4" fill="#FB8703" stroke-width="0" stroke="#333"></circle><circle cx="323.99999999999994" cy="172.05882352941177" r="4" fill="#FB8703" stroke-width="0" stroke="#333"></circle><circle cx="333" cy="229.41176470588235" r="4" fill="#2086C0" stroke-width="0" stroke="#333"></circle><circle cx="342" cy="172.05882352941177" r="4" fill="#FB8703" stroke-width="0" stroke="#333"></circle><circle cx="351" cy="172.05882352941177" r="4" fill="#FB8703" stroke-width="0" stroke="#333"></circle><circle cx="360" cy="172.05882352941177" r="4" fill="#FB8703" stroke-width="0" stroke="#333"></circle><circle cx="369" cy="172.05882352941177" r="4" fill="#FB8703" stroke-width="0" stroke="#333"></circle><circle cx="378" cy="229.41176470588235" r="4" fill="#2086C0" stroke-width="0" stroke="#333"></circle><circle cx="387" cy="229.41176470588235" r="4" fill="#2086C0" stroke-width="0" stroke="#333"></circle><circle cx="396" cy="267.6470588235294" r="4" fill="#00A204" stroke-width="0" stroke="#333"></circle><circle cx="405.00000000000006" cy="267.6470588235294" r="4" fill="#00A204" stroke-width="0" stroke="#333"></circle><circle cx="414" cy="229.41176470588235" r="4" fill="#2086C0" stroke-width="0" stroke="#333"></circle><circle cx="422.99999999999994" cy="229.41176470588235" r="4" fill="#2086C0" stroke-width="0" stroke="#333"></circle><circle cx="432" cy="172.05882352941177" r="4" fill="#FB8703" stroke-width="0" stroke="#333"></circle><circle cx="441" cy="172.05882352941177" r="4" fill="#FB8703" stroke-width="0" stroke="#333"></circle><circle cx="450" cy="19.117647058823536" r="4" fill="#DC0300" stroke-width="0" stroke="#333"></circle><circle cx="459" cy="19.117647058823536" r="4" fill="#DC0300" stroke-width="0" stroke="#333"></circle><circle cx="468" cy="19.117647058823536" r="4" fill="#DC0300" stroke-width="0" stroke="#333"></circle><circle cx="477" cy="19.117647058823536" r="4" fill="#DC0300" stroke-width="0" stroke="#333"></circle><circle cx="486" cy="19.117647058823536" r="4" fill="#DC0300" stroke-width="0" stroke="#333"></circle><circle cx="495" cy="248.52941176470588" r="4" fill="#FDF503" stroke-width="0" stroke="#333"></circle><circle cx="504" cy="248.52941176470588" r="4" fill="#FDF503" stroke-width="0" stroke="#333"></circle><circle cx="513" cy="19.117647058823536" r="4" fill="#DC0300" stroke-width="0" stroke="#333"></circle><circle cx="522" cy="172.05882352941177" r="4" fill="#FB8703" stroke-width="0" stroke="#333"></circle><circle cx="531" cy="305.88235294117646" r="4" fill="#80f080" stroke-width="0" stroke="#333"></circle><circle cx="540" cy="286.7647058823529" r="4" fill="#2041FF" stroke-width="0" stroke="#333"></circle><circle cx="549" cy="286.7647058823529" r="4" fill="#2041FF" stroke-width="0" stroke="#333"></circle><circle cx="558" cy="286.7647058823529" r="4" fill="#2041FF" stroke-width="0" stroke="#333"></circle><circle cx="567" cy="286.7647058823529" r="4" fill="#2041FF" stroke-width="0" stroke="#333"></circle><circle cx="576" cy="114.70588235294119" r="4" fill="#2ED2BE" stroke-width="0" stroke="#333"></circle><circle cx="585" cy="114.70588235294119" r="4" fill="#2ED2BE" stroke-width="0" stroke="#333"></circle><circle cx="594" cy="114.70588235294119" r="4" fill="#2ED2BE" stroke-width="0" stroke="#333"></circle><circle cx="603" cy="114.70588235294119" r="4" fill="#2ED2BE" stroke-width="0" stroke="#333"></circle><circle cx="612" cy="114.70588235294119" r="4" fill="#2ED2BE" stroke-width="0" stroke="#333"></circle></g></svg>
