<svg xmlns='http://www.w3.org/2000/svg' version='1.1' width='1509px' height='1308px'><svg xmlns="http://www.w3.org/2000/svg" id="graphic" width="1480.8" height="1234.5600390625" x="27.600006103515625" y="72.86666870117188"><g class="axes"><g class="facet" transform="translate(86.4000015258789, 19.200000762939453)" opacity="1"><text class="facet-title" y="0" font-size="1.25rem" font-weight="bold" dominant-baseline="middle" x="0" clip-path="url(#facet-clip-0-211)" fill="rgb(136, 136, 136)" opacity="0"/><g class="plot"><clipPath class="facet-clip" id="facet-clip-0-211"><rect width="1413.600048828125" height="1253.7600390624998" transform="translate(-19.200000762939453, -76.80000305175781)"/></clipPath><clipPath class="facet-clip-plot" id="facet-clip-0-plot-211"><rect width="1375.2000488281249" height="1100.1600390625"/></clipPath><g class="bg"><rect fill="none" opacity="1" style="fill: none;" width="1375.2000488281249" height="1100.1600390625"/><image opacity="1" preserveAspectRatio="none" width="1375.2000488281249" height="1100.1600390625"/></g><g class="interaction"><rect style="opacity: 0;" width="1375.2000488281249" height="1100.1600390625"/></g><g class="annotations"/><g class="axes"><text class="y axis-label" transform="translate(-57.599998474121094, 550.0800170898438) rotate(-90)" fill="#999999" text-anchor="middle" dominant-baseline="middle" font-size="1rem">Championship Titles</text><g class="x axis" transform="translate(0, 1100.1600341796875)" fill="none" font-size="10" font-family="sans-serif" text-anchor="middle" style="font-family: Source Sans Pro;"><path class="domain" stroke="#eeeeee" d="M0.5,0.5H1375.7000488281249" stroke-dasharray="0" style="visibility: hidden;"/><g class="tick" opacity="1" transform="translate(0.5, 0)"><line stroke="#eeeeee" y2="-1100.1600390625" stroke-dasharray="0"/><text fill="rgb(153, 153, 153)" y="3" dy="-9" opacity="1" dominant-baseline="central" style="text-anchor: middle; visibility: visible;" font-size="1rem" transform="translate(0, 15)" dx="0">0</text></g><g class="tick" opacity="1" transform="translate(98.72857666015625, 0)"><line stroke="#eeeeee" y2="-1100.1600390625" stroke-dasharray="0"/><text fill="rgb(153, 153, 153)" y="3" dy="-9" opacity="1" dominant-baseline="central" style="text-anchor: middle; visibility: visible;" font-size="1rem" transform="translate(0, 15)" dx="0">5</text></g><g class="tick" opacity="1" transform="translate(196.9571533203125, 0)"><line stroke="#eeeeee" y2="-1100.1600390625" stroke-dasharray="0"/><text fill="rgb(153, 153, 153)" y="3" dy="-9" opacity="1" dominant-baseline="central" style="text-anchor: middle; visibility: visible;" font-size="1rem" transform="translate(0, 15)" dx="0">10</text></g><g class="tick" opacity="1" transform="translate(295.18572998046875, 0)"><line stroke="#eeeeee" y2="-1100.1600390625" stroke-dasharray="0"/><text fill="rgb(153, 153, 153)" y="3" dy="-9" opacity="1" dominant-baseline="central" style="text-anchor: middle; visibility: visible;" font-size="1rem" transform="translate(0, 15)" dx="0">15</text></g><g class="tick" opacity="1" transform="translate(393.414306640625, 0)"><line stroke="#eeeeee" y2="-1100.1600390625" stroke-dasharray="0"/><text fill="rgb(153, 153, 153)" y="3" dy="-9" opacity="1" dominant-baseline="central" style="text-anchor: middle; visibility: visible;" font-size="1rem" transform="translate(0, 15)" dx="0">20</text></g><g class="tick" opacity="1" transform="translate(491.64288330078125, 0)"><line stroke="#eeeeee" y2="-1100.1600390625" stroke-dasharray="0"/><text fill="rgb(153, 153, 153)" y="3" dy="-9" opacity="1" dominant-baseline="central" style="text-anchor: middle; visibility: visible;" font-size="1rem" transform="translate(0, 15)" dx="0">25</text></g><g class="tick" opacity="1" transform="translate(589.8714599609375, 0)"><line stroke="#eeeeee" y2="-1100.1600390625" stroke-dasharray="0"/><text fill="rgb(153, 153, 153)" y="3" dy="-9" opacity="1" dominant-baseline="central" style="text-anchor: middle; visibility: visible;" font-size="1rem" transform="translate(0, 15)" dx="0">30</text></g><g class="tick" opacity="1" transform="translate(688.1000366210938, 0)"><line stroke="#eeeeee" y2="-1100.1600390625" stroke-dasharray="0"/><text fill="rgb(153, 153, 153)" y="3" dy="-9" opacity="1" dominant-baseline="central" style="text-anchor: middle; visibility: visible;" font-size="1rem" transform="translate(0, 15)" dx="0">35</text></g><g class="tick" opacity="1" transform="translate(786.32861328125, 0)"><line stroke="#eeeeee" y2="-1100.1600390625" stroke-dasharray="0"/><text fill="rgb(153, 153, 153)" y="3" dy="-9" opacity="1" dominant-baseline="central" style="text-anchor: middle; visibility: visible;" font-size="1rem" transform="translate(0, 15)" dx="0">40</text></g><g class="tick" opacity="1" transform="translate(884.5571899414062, 0)"><line stroke="#eeeeee" y2="-1100.1600390625" stroke-dasharray="0"/><text fill="rgb(153, 153, 153)" y="3" dy="-9" opacity="1" dominant-baseline="central" style="text-anchor: middle; visibility: visible;" font-size="1rem" transform="translate(0, 15)" dx="0">45</text></g><g class="tick" opacity="1" transform="translate(982.7857666015625, 0)"><line stroke="#eeeeee" y2="-1100.1600390625" stroke-dasharray="0"/><text fill="rgb(153, 153, 153)" y="3" dy="-9" opacity="1" dominant-baseline="central" style="text-anchor: middle; visibility: visible;" font-size="1rem" transform="translate(0, 15)" dx="0">50</text></g><g class="tick" opacity="1" transform="translate(1081.0142822265625, 0)"><line stroke="#eeeeee" y2="-1100.1600390625" stroke-dasharray="0"/><text fill="rgb(153, 153, 153)" y="3" dy="-9" opacity="1" dominant-baseline="central" style="text-anchor: middle; visibility: visible;" font-size="1rem" transform="translate(0, 15)" dx="0">55</text></g><g class="tick" opacity="1" transform="translate(1179.242919921875, 0)"><line stroke="#eeeeee" y2="-1100.1600390625" stroke-dasharray="0"/><text fill="rgb(153, 153, 153)" y="3" dy="-9" opacity="1" dominant-baseline="central" style="text-anchor: middle; visibility: visible;" font-size="1rem" transform="translate(0, 15)" dx="0">60</text></g><g class="tick" opacity="1" transform="translate(1277.471435546875, 0)"><line stroke="#eeeeee" y2="-1100.1600390625" stroke-dasharray="0"/><text fill="rgb(153, 153, 153)" y="3" dy="-9" opacity="1" dominant-baseline="central" style="text-anchor: middle; visibility: visible;" font-size="1rem" transform="translate(0, 15)" dx="0">65</text></g><g class="tick" opacity="1" transform="translate(1375.7000732421875, 0)"><line stroke="#eeeeee" y2="-1100.1600390625" stroke-dasharray="0"/><text fill="rgb(153, 153, 153)" y="3" dy="-9" opacity="1" dominant-baseline="central" style="text-anchor: middle; visibility: visible;" font-size="1rem" transform="translate(0, 15)" dx="0">70</text></g></g><text class="x axis-label" transform="translate(687.6000366210938, 1196.1600341796875)" fill="#999999" text-anchor="middle" dominant-baseline="middle" font-size="1rem">Years Competed</text><g class="y axis" transform="translate(00)" fill="none" font-size="10" font-family="sans-serif" text-anchor="end" style="font-family: Source Sans Pro;"><path class="domain" stroke="#eeeeee" d="M0.5,1100.6600390625V0.5" stroke-dasharray="0" style="visibility: hidden;"/><g class="tick" opacity="1" transform="translate(0, 1100.6600341796875)" style="visibility: visible;"><line stroke="#eeeeee" x2="1375.2000488281249" stroke-dasharray="0"/><text fill="rgb(153, 153, 153)" x="-3" dy="0.33em" opacity="1" text-anchor="end" font-size="1rem">0</text></g><g class="tick" opacity="1" transform="translate(0, 963.1400146484375)" style="visibility: visible;"><line stroke="#eeeeee" x2="1375.2000488281249" stroke-dasharray="0"/><text fill="rgb(153, 153, 153)" x="-3" dy="0.33em" opacity="1" text-anchor="end" font-size="1rem">2</text></g><g class="tick" opacity="1" transform="translate(0, 825.6200561523438)" style="visibility: visible;"><line stroke="#eeeeee" x2="1375.2000488281249" stroke-dasharray="0"/><text fill="rgb(153, 153, 153)" x="-3" dy="0.33em" opacity="1" text-anchor="end" font-size="1rem">4</text></g><g class="tick" opacity="1" transform="translate(0, 688.1000366210938)" style="visibility: visible;"><line stroke="#eeeeee" x2="1375.2000488281249" stroke-dasharray="0"/><text fill="rgb(153, 153, 153)" x="-3" dy="0.33em" opacity="1" text-anchor="end" font-size="1rem">6</text></g><g class="tick" opacity="1" transform="translate(0, 550.5800170898438)" style="visibility: visible;"><line stroke="#eeeeee" x2="1375.2000488281249" stroke-dasharray="0"/><text fill="rgb(153, 153, 153)" x="-3" dy="0.33em" opacity="1" text-anchor="end" font-size="1rem">8</text></g><g class="tick" opacity="1" transform="translate(0, 413.0600280761719)" style="visibility: visible;"><line stroke="#eeeeee" x2="1375.2000488281249" stroke-dasharray="0"/><text fill="rgb(153, 153, 153)" x="-3" dy="0.33em" opacity="1" text-anchor="end" font-size="1rem">10</text></g><g class="tick" opacity="1" transform="translate(0, 275.5400085449219)" style="visibility: visible;"><line stroke="#eeeeee" x2="1375.2000488281249" stroke-dasharray="0"/><text fill="rgb(153, 153, 153)" x="-3" dy="0.33em" opacity="1" text-anchor="end" font-size="1rem">12</text></g><g class="tick" opacity="1" transform="translate(0, 138.02000427246094)" style="visibility: visible;"><line stroke="#eeeeee" x2="1375.2000488281249" stroke-dasharray="0"/><text fill="rgb(153, 153, 153)" x="-3" dy="0.33em" opacity="1" text-anchor="end" font-size="1rem">14</text></g><g class="tick" opacity="1" transform="translate(0,0.5)" style="visibility: visible;"><line stroke="#eeeeee" x2="1375.2000488281249" stroke-dasharray="0"/><text fill="rgb(153, 153, 153)" x="-3" dy="0.33em" opacity="1" text-anchor="end" font-size="1rem">16</text></g></g></g></g></g></g><g class="fits"/><g class="violins"/><g class="lines"/><g class="data-points" style=""><path class="data-point" d="M7.978845608028654,0A7.978845608028654,7.978845608028654,0,1,1,-7.978845608028654,0A7.978845608028654,7.978845608028654,0,1,1,7.978845608028654,0" vector-effect="non-scaling-stroke" stroke="#11A579" fill="#11A579" fill-opacity="1" stroke-opacity="1" stroke-width="1" transform="translate(302.50286865234375, 981.8400268554688)"/><path class="data-point" d="M6.90988298942671,0A6.90988298942671,6.90988298942671,0,1,1,-6.90988298942671,0A6.90988298942671,6.90988298942671,0,1,1,6.90988298942671,0" vector-effect="non-scaling-stroke" stroke="#CC503E" fill="#CC503E" fill-opacity="1" stroke-opacity="1" stroke-width="1" transform="translate(400.7314453125, 981.8400268554688)"/><path class="data-point" d="M9.772050238058398,0A9.772050238058398,9.772050238058398,0,1,1,-9.772050238058398,0A9.772050238058398,9.772050238058398,0,1,1,9.772050238058398,0" vector-effect="non-scaling-stroke" stroke="#3969AC" fill="#3969AC" fill-opacity="1" stroke-opacity="1" stroke-width="1" transform="translate(695.4171752929688, 844.3200073242188)"/><path class="data-point" d="M6.90988298942671,0A6.90988298942671,6.90988298942671,0,1,1,-6.90988298942671,0A6.90988298942671,6.90988298942671,0,1,1,6.90988298942671,0" vector-effect="non-scaling-stroke" stroke="#F2B701" fill="#F2B701" fill-opacity="1" stroke-opacity="1" stroke-width="1" transform="translate(106.04571533203125, 1050.60009765625)"/><path class="data-point" d="M6.90988298942671,0A6.90988298942671,6.90988298942671,0,1,1,-6.90988298942671,0A6.90988298942671,6.90988298942671,0,1,1,6.90988298942671,0" vector-effect="non-scaling-stroke" stroke="#7F3C8D" fill="#7F3C8D" fill-opacity="1" stroke-opacity="1" stroke-width="1" transform="translate(518.605712890625, 1050.60009765625)"/><path class="data-point" d="M6.90988298942671,0A6.90988298942671,6.90988298942671,0,1,1,-6.90988298942671,0A6.90988298942671,6.90988298942671,0,1,1,6.90988298942671,0" vector-effect="non-scaling-stroke" stroke="#80BA5A" fill="#80BA5A" fill-opacity="1" stroke-opacity="1" stroke-width="1" transform="translate(459.6685791015625, 981.8400268554688)"/><path class="data-point" d="M16.925687506432688,0A16.925687506432688,16.925687506432688,0,1,1,-16.925687506432688,0A16.925687506432688,16.925687506432688,0,1,1,16.925687506432688,0" vector-effect="non-scaling-stroke" stroke="#E68310" fill="#E68310" fill-opacity="1" stroke-opacity="1" stroke-width="1" transform="translate(1461.60009765625, 87.95999908447266)"/><path class="data-point" d="M12.6156626101008,0A12.6156626101008,12.6156626101008,0,1,1,-12.6156626101008,0A12.6156626101008,12.6156626101008,0,1,1,12.6156626101008,0" vector-effect="non-scaling-stroke" stroke="#CF1C90" fill="#CF1C90" fill-opacity="1" stroke-opacity="1" stroke-width="1" transform="translate(931.165771484375, 706.800048828125)"/><path class="data-point" d="M6.90988298942671,0A6.90988298942671,6.90988298942671,0,1,1,-6.90988298942671,0A6.90988298942671,6.90988298942671,0,1,1,6.90988298942671,0" vector-effect="non-scaling-stroke" stroke="#008695" fill="#008695" fill-opacity="1" stroke-opacity="1" stroke-width="1" transform="translate(302.50286865234375, 1050.60009765625)"/><path class="data-point" d="M6.90988298942671,0A6.90988298942671,6.90988298942671,0,1,1,-6.90988298942671,0A6.90988298942671,6.90988298942671,0,1,1,6.90988298942671,0" vector-effect="non-scaling-stroke" stroke="#F97B72" fill="#F97B72" fill-opacity="1" stroke-opacity="1" stroke-width="1" transform="translate(204.2742919921875, 1050.60009765625)"/><path class="data-point" d="M14.927053303604616,0A14.927053303604616,14.927053303604616,0,1,1,-14.927053303604616,0A14.927053303604616,14.927053303604616,0,1,1,14.927053303604616,0" vector-effect="non-scaling-stroke" stroke="#4B4B8F" fill="#4B4B8F" fill-opacity="1" stroke-opacity="1" stroke-width="1" transform="translate(1127.6229248046875, 294.2400207519531)"/><path class="data-point" d="M9.772050238058398,0A9.772050238058398,9.772050238058398,0,1,1,-9.772050238058398,0A9.772050238058398,9.772050238058398,0,1,1,9.772050238058398,0" vector-effect="non-scaling-stroke" stroke="#A5AA99" fill="#A5AA99" fill-opacity="1" stroke-opacity="1" stroke-width="1" transform="translate(322.1485900878906, 638.0400390625)"/><path class="data-point" d="M6.90988298942671,0A6.90988298942671,6.90988298942671,0,1,1,-6.90988298942671,0A6.90988298942671,6.90988298942671,0,1,1,6.90988298942671,0" vector-effect="non-scaling-stroke" stroke="#ca61a7" fill="#ca61a7" fill-opacity="1" stroke-opacity="1" stroke-width="1" transform="translate(381.0857238769531, 844.3200073242188)"/><path class="data-point" d="M6.90988298942671,0A6.90988298942671,6.90988298942671,0,1,1,-6.90988298942671,0A6.90988298942671,6.90988298942671,0,1,1,6.90988298942671,0" vector-effect="non-scaling-stroke" stroke="#009ca7" fill="#009ca7" fill-opacity="1" stroke-opacity="1" stroke-width="1" transform="translate(616.8342895507812, 981.8400268554688)"/><path class="data-point" d="M6.90988298942671,0A6.90988298942671,6.90988298942671,0,1,1,-6.90988298942671,0A6.90988298942671,6.90988298942671,0,1,1,6.90988298942671,0" vector-effect="non-scaling-stroke" stroke="#b87733" fill="#b87733" fill-opacity="1" stroke-opacity="1" stroke-width="1" transform="translate(656.125732421875, 981.8400268554688)"/><path class="data-point" d="M14.927053303604616,0A14.927053303604616,14.927053303604616,0,1,1,-14.927053303604616,0A14.927053303604616,14.927053303604616,0,1,1,14.927053303604616,0" vector-effect="non-scaling-stroke" stroke="#7780dd" fill="#7780dd" fill-opacity="1" stroke-opacity="1" stroke-width="1" transform="translate(970.4571533203125, 638.0400390625)"/></g></svg><svg xmlns="http://www.w3.org/2000/svg" id="overlay" width="1480.8" height="1234.5600390625" x="27.600006103515625" y="72.86666870117188"><g class="data-labels"/><g class="boxes"/></svg></svg>